M48
;Layer_Color=9474304
;FILE_FORMAT=4:4
METRIC,LZ
;TYPE=PLATED
T1F00S00C0.6000
T2F00S00C0.7000
T3F00S00C0.7874
T4F00S00C0.8000
T5F00S00C0.8636
T6F00S00C0.9000
T7F00S00C1.2000
T8F00S00C3.0000
%
T01
X0011524Y-0084742
X00299244Y-00771414
X00319389
X00339534
X00464878Y-0086942
X00485023
X00505167
X00526296Y-00681923
Y-00607423
X00406836Y-00665811
X00386691
X00376076Y-00747996
X00339921Y-0071308
X00319777
X00299632
X0025494
X0022954
X0021684Y-0070308
X0020414Y-0071308
X0019144Y-0070308
X0017874Y-0071308
X0016604Y-0070308
X00315147Y-00621343
X00357878Y-0049819
Y-0048019
X00378023
Y-0049819
X00442018Y-00464206
X00521417Y-00377791
Y-00322742
X00485023
X00464878
X00444733
X00162356Y-0034781
X00541561Y-00322234
X00561706Y-00321726
T02
X00324919Y-00426322
X00344919
X00352419Y-00358272
X00317418
T03
X00227642Y-00563629
X00253042
X00312714
X00338114
X00397786
X00423186
X00482858
X00508258
Y-00487429
X00482858
X00423186
X00397786
X00338114
X00312714
X00253042
X00227642
X00193807Y-0045775
X0017192Y-0046789
X00193807Y-0040695
Y-0038467
X0012112Y-0046789
X0007888
X0002808
X00193807Y-0033387
X00334919Y-0022
Y-001692
X00542253
Y-0022
T04
X00099972Y-0064011
X00099972Y-0059011
X00099972Y-0053511
X00099972Y-0048511
T05
X00512165Y-00037108
X00537565
T06
X00194071Y-0022
X00269071
X0040077
X0047577
T07
X00569832Y-00458241
X00639832
X00604832Y-00423241
X0033487Y-00081927
X0028407
X0023327
X0018247
X00604832Y-00169241
T08
X0Y-009
X0067
X0Y0
X0067
M30
