G04*
G04 #@! TF.GenerationSoftware,Altium Limited,Altium Designer,18.0.7 (293)*
G04*
G04 Layer_Color=16711935*
%FSLAX25Y25*%
%MOIN*%
G70*
G01*
G75*
%ADD10R,0.04343X0.05524*%
%ADD11R,0.04343X0.05524*%
%ADD12R,0.04331X0.05894*%
%ADD13R,0.05894X0.04331*%
%ADD14R,0.06300X0.04737*%
%ADD15O,0.03162X0.07887*%
%ADD16R,0.04343X0.04540*%
%ADD17R,0.09068X0.06509*%
%ADD18R,0.04540X0.04343*%
%ADD19R,0.05524X0.04343*%
%ADD20R,0.05524X0.04343*%
%ADD21R,0.04737X0.06300*%
%ADD22C,0.07800*%
%ADD23R,0.08300X0.09800*%
%ADD24O,0.08300X0.09800*%
%ADD25O,0.08674X0.14580*%
%ADD26R,0.06800X0.09800*%
%ADD27O,0.06800X0.09800*%
%ADD28O,0.10642X0.16548*%
%ADD29R,0.10642X0.16548*%
%ADD30R,0.05556X0.05556*%
%ADD31C,0.05556*%
%ADD32O,0.08674X0.12611*%
%ADD33C,0.12800*%
%ADD34C,0.05800*%
%ADD35C,0.12611*%
%ADD36C,0.12611*%
D10*
X236290Y122274D02*
D03*
X68129Y180980D02*
D03*
Y205193D02*
D03*
D11*
X224290Y122274D02*
D03*
X56129Y180980D02*
D03*
Y205193D02*
D03*
D12*
X251902Y122274D02*
D03*
X242902D02*
D03*
X210290D02*
D03*
X219290D02*
D03*
X226290Y85857D02*
D03*
X217290D02*
D03*
X175998Y36057D02*
D03*
X184998D02*
D03*
X43944Y195547D02*
D03*
X52944D02*
D03*
X62185Y169843D02*
D03*
X53185D02*
D03*
X43944Y188067D02*
D03*
X52944D02*
D03*
X66437Y112555D02*
D03*
X75437D02*
D03*
D13*
X243463Y108566D02*
D03*
Y99566D02*
D03*
X207203Y99566D02*
D03*
Y108566D02*
D03*
X195172Y53922D02*
D03*
Y44922D02*
D03*
X202258Y53922D02*
D03*
Y44922D02*
D03*
X151998Y68844D02*
D03*
Y59844D02*
D03*
X158912Y68768D02*
D03*
Y59768D02*
D03*
X188085Y44922D02*
D03*
Y53922D02*
D03*
Y59768D02*
D03*
Y68767D02*
D03*
X100370Y58067D02*
D03*
Y67067D02*
D03*
X70370Y58067D02*
D03*
Y67067D02*
D03*
X45370Y27224D02*
D03*
Y36224D02*
D03*
X190102Y112555D02*
D03*
Y121555D02*
D03*
X133116Y112555D02*
D03*
Y121555D02*
D03*
X224343Y159523D02*
D03*
Y150523D02*
D03*
X251902D02*
D03*
Y159523D02*
D03*
X76302Y188614D02*
D03*
Y179614D02*
D03*
X166609Y180572D02*
D03*
Y171572D02*
D03*
X156609Y180573D02*
D03*
Y171573D02*
D03*
X123116Y171709D02*
D03*
Y180709D02*
D03*
X133116Y180573D02*
D03*
Y171573D02*
D03*
X183015Y203913D02*
D03*
Y194913D02*
D03*
X175928Y203913D02*
D03*
Y194913D02*
D03*
X190102Y171709D02*
D03*
Y180709D02*
D03*
X89623Y180709D02*
D03*
Y171709D02*
D03*
X99623Y180709D02*
D03*
Y171709D02*
D03*
X31055Y143658D02*
D03*
Y152657D02*
D03*
X89623Y112555D02*
D03*
Y121555D02*
D03*
X82536Y112555D02*
D03*
Y121555D02*
D03*
X113796Y112555D02*
D03*
Y121555D02*
D03*
D14*
X236376Y108566D02*
D03*
Y99566D02*
D03*
X200116D02*
D03*
Y108566D02*
D03*
X107457Y58067D02*
D03*
Y67067D02*
D03*
X92457Y58067D02*
D03*
Y67067D02*
D03*
X85370Y58067D02*
D03*
Y67067D02*
D03*
X78284Y58067D02*
D03*
Y67067D02*
D03*
X52484Y27224D02*
D03*
Y36224D02*
D03*
X140202Y171573D02*
D03*
Y180573D02*
D03*
X99623Y112555D02*
D03*
Y121555D02*
D03*
X106710Y112555D02*
D03*
Y121555D02*
D03*
D15*
X219290Y92944D02*
D03*
X224290D02*
D03*
X214290D02*
D03*
X229290D02*
D03*
X219290Y115188D02*
D03*
X214290D02*
D03*
X229290D02*
D03*
X224290D02*
D03*
X175998Y65388D02*
D03*
X170998D02*
D03*
X180998D02*
D03*
X165998D02*
D03*
X175998Y43144D02*
D03*
X180998D02*
D03*
X165998D02*
D03*
X170998D02*
D03*
D16*
X155537Y44473D02*
D03*
X159277Y53922D02*
D03*
X151797D02*
D03*
X111325Y137154D02*
D03*
X115066Y127705D02*
D03*
X107585D02*
D03*
D17*
X63118Y102319D02*
D03*
X51701D02*
D03*
X63118Y143658D02*
D03*
X51701D02*
D03*
D18*
X58680Y188067D02*
D03*
Y195547D02*
D03*
X68129Y191807D02*
D03*
X200102Y199457D02*
D03*
X190653Y203197D02*
D03*
Y195717D02*
D03*
D19*
X200102Y171709D02*
D03*
D20*
Y183709D02*
D03*
D21*
X51701Y112555D02*
D03*
X60701D02*
D03*
D22*
X67685Y170122D02*
D03*
X47685D02*
D03*
X31055D02*
D03*
X11055D02*
D03*
X76302Y194114D02*
D03*
Y174114D02*
D03*
Y222886D02*
D03*
Y202886D02*
D03*
X131858Y267717D02*
D03*
Y287717D02*
D03*
X213485Y267717D02*
D03*
Y287717D02*
D03*
D23*
X201640Y339721D02*
D03*
D24*
X211640D02*
D03*
D25*
X131839Y322076D02*
D03*
X111839D02*
D03*
X71839D02*
D03*
X91839D02*
D03*
D26*
X190102Y132430D02*
D03*
X166609Y162429D02*
D03*
X123116Y132430D02*
D03*
X89623D02*
D03*
D27*
X200102D02*
D03*
Y162429D02*
D03*
X190102D02*
D03*
X156609D02*
D03*
Y132430D02*
D03*
X166609D02*
D03*
X133116D02*
D03*
Y162429D02*
D03*
X123116D02*
D03*
X99623Y132430D02*
D03*
Y162429D02*
D03*
X89623D02*
D03*
D28*
X105933Y267717D02*
D03*
X187311D02*
D03*
D29*
X76406D02*
D03*
X157783D02*
D03*
D30*
X124968Y213279D02*
D03*
X127921Y186487D02*
D03*
D31*
X138747Y213279D02*
D03*
X135795Y186487D02*
D03*
D32*
X39359Y102319D02*
D03*
X39359Y122004D02*
D03*
X39359Y143658D02*
D03*
X39359Y163342D02*
D03*
D33*
X238123Y187700D02*
D03*
Y287700D02*
D03*
D34*
X205282Y205594D02*
D03*
X148061Y59844D02*
D03*
X207203Y115188D02*
D03*
Y85857D02*
D03*
X125744Y50625D02*
D03*
X133675D02*
D03*
X117813D02*
D03*
X117965Y73590D02*
D03*
X133827D02*
D03*
X125896D02*
D03*
X45370Y20701D02*
D03*
X100370Y73590D02*
D03*
X90370D02*
D03*
X80370D02*
D03*
X85370Y77528D02*
D03*
X124074Y109707D02*
D03*
X75370Y77528D02*
D03*
X70370Y73590D02*
D03*
X65370Y77528D02*
D03*
X160171Y92200D02*
D03*
X152241D02*
D03*
X183023Y227267D02*
D03*
X175092D02*
D03*
X190954D02*
D03*
X221144Y227667D02*
D03*
X205282Y227267D02*
D03*
X213213Y227467D02*
D03*
X140897Y165480D02*
D03*
X63920Y217398D02*
D03*
X140897Y158193D02*
D03*
X148828D02*
D03*
Y165279D02*
D03*
X174023Y171572D02*
D03*
D35*
X251902Y173921D02*
D03*
X224343D02*
D03*
D36*
X0Y354331D02*
D03*
X263779Y0D02*
D03*
Y354331D02*
D03*
X0Y0D02*
D03*
M02*
